<svg xmlns="http://www.w3.org/2000/svg" viewBox="0 0 24 24" width="24px" height="24px">
  <path d="M21.53,8.66c-1.057-1.253-4.384-4.771-4.384-4.771l0,0.011 c-0.545-0.554-1.3-0.9-2.137-0.9H6C4.346,3,3,4.346,3,6v10c0,0.771,0.3,1.467,0.779,1.999l-0.029,0.01c0,0,2.51,2.358,3.672,3.449 C7.793,21.806,8.284,22,8.793,22c2.138,0,8.072,0,11.207,0c1.105,0,2-0.894,2-1.996c0-3.052,0-8.047,0-10.059 C22,9.475,21.833,9.02,21.53,8.66z M15,17H6c-0.553,0-1-0.448-1-1s0.447-1,1-1h9c0.553,0,1,0.448,1,1S15.553,17,15,17z M15,12H6 c-0.553,0-1-0.448-1-1s0.447-1,1-1h9c0.553,0,1,0.448,1,1S15.553,12,15,12z M15,7H6C5.447,7,5,6.552,5,6s0.447-1,1-1h9 c0.553,0,1,0.448,1,1S15.553,7,15,7z" fill="#FFFFFF" />
</svg>